# xmcd
#
# Track frame offsets:
# 182
# 20885
# 42797
# 65365
# 84045
# 102777
# 129522
# 155120
# 169427
# 195830
# 215500
# 238637
#
# Disc length: 3452 seconds
#
# Revision: 0
# Processed by: cddbd v1.5.1PL0 Copyright (c) Steve Scherf et al.
# Submitted via: Audion 3.0.2 (http://www.panic.com/audion/)
#
DISCID=9b0d7a0c
DTITLE=Various Artist - Urban Highlights
DYEAR=1900
DGENRE=
TTITLE0=Super Rail
TTITLE1=Safy Boutella
TTITLE2=Juan Jose Mosalini
TTITLE3=Lela de Permet
TTITLE4=Adama Drame
TTITLE5=Duncan senyatso
TTITLE6=Lapiro de Mbanga
TTITLE7=Granmoun Lele
TTITLE8=Vusi Mahlasela
TTITLE9=Ki Yi M'bock
TTITLE10=Elite Swingsters
TTITLE11=rathebe
EXTD=
EXTT0=
EXTT1=
EXTT2=
EXTT3=
EXTT4=
EXTT5=
EXTT6=
EXTT7=
EXTT8=
EXTT9=
EXTT10=
EXTT11=
PLAYORDER=
